/* XPM */
static char *bd54dcaad360439fdfec4fbe07e6d846[] = {
/* columns rows colors chars-per-pixel */
"64 64 256 2 ",
"   c #010101",
".  c #04050B",
"X  c #0D0D0D",
"o  c #10100F",
"O  c #070915",
"+  c #0C0E14",
"@  c #030715",
"#  c #0F1015",
"$  c #0E111D",
"%  c #141414",
"&  c #181817",
"*  c #13141B",
"=  c #17181C",
"-  c #1C1C1C",
";  c #181718",
":  c #201F1F",
">  c #21201F",
",  c #131621",
"<  c #161922",
"1  c #1B1D23",
"2  c #1B1E29",
"3  c #0E1224",
"4  c #201F20",
"5  c #1F2022",
"6  c #1E212A",
"7  c #242424",
"8  c #282726",
"9  c #272827",
"0  c #282827",
"q  c #24252B",
"w  c #27282D",
"e  c #2B2B2A",
"r  c #282728",
"t  c #302F2C",
"y  c #322F25",
"u  c #2F302E",
"i  c #30302F",
"p  c #3C382B",
"a  c #2C2E33",
"s  c #252832",
"d  c #2F3035",
"f  c #343433",
"g  c #383736",
"h  c #373837",
"j  c #393936",
"k  c #3B3B3A",
"l  c #313238",
"z  c #403D2E",
"x  c #413E35",
"c  c #413F3A",
"v  c #3F403F",
"b  c #474029",
"n  c #4D462C",
"m  c #524B2E",
"M  c #5F552E",
"N  c #4A4633",
"B  c #4E4931",
"V  c #42413C",
"C  c #4C493B",
"Z  c #49463E",
"A  c #5C5436",
"S  c #504B35",
"D  c #645B35",
"F  c #6A5E34",
"G  c #625A3B",
"H  c #63572D",
"J  c #6C623B",
"K  c #6F6234",
"L  c #726535",
"P  c #7C6D36",
"I  c #7B6D3A",
"U  c #746739",
"Y  c #7F713D",
"T  c #434342",
"R  c #4C4C4B",
"E  c #484848",
"W  c #4F504F",
"Q  c #58564D",
"!  c #545452",
"~  c #5A5A56",
"^  c #5C5D5A",
"/  c #585755",
"(  c #635E45",
")  c #625F50",
"_  c #5F615C",
"`  c #686247",
"'  c #756B44",
"]  c #766D46",
"[  c #7D7140",
"{  c #62625F",
"}  c #676454",
"|  c #746E55",
" . c #797255",
".. c #7C7559",
"X. c #646462",
"o. c #6A6A66",
"O. c #6C6D6B",
"+. c #666866",
"@. c #6F706E",
"#. c #72726D",
"$. c #747472",
"%. c #7C7B76",
"&. c #7C7D7A",
"*. c #777876",
"=. c #83743B",
"-. c #8C7B3D",
";. c #897737",
":. c #927F39",
">. c #837542",
",. c #8C7D43",
"<. c #847948",
"1. c #837B5A",
"2. c #837F65",
"3. c #807E7A",
"4. c #7F807B",
"5. c #94823C",
"6. c #9D8A3C",
"7. c #8E8046",
"8. c #938344",
"9. c #9B8945",
"0. c #94854B",
"q. c #9B8B4B",
"w. c #988745",
"e. c #8C845D",
"r. c #8F8455",
"t. c #9D8D52",
"y. c #93895A",
"u. c #A18E44",
"i. c #A08E4B",
"p. c #A3914C",
"a. c #A8964C",
"s. c #AC994D",
"d. c #A49453",
"f. c #AB9A51",
"g. c #AB9C5C",
"h. c #A69658",
"j. c #B19E51",
"k. c #B09F5C",
"l. c #B5A256",
"z. c #B4A35B",
"x. c #B9A65C",
"c. c #B8A452",
"v. c #8A8368",
"b. c #938A63",
"n. c #938B69",
"m. c #9B9163",
"M. c #83837D",
"N. c #89867F",
"B. c #999372",
"V. c #AC9D63",
"C. c #A59B6A",
"Z. c #A69C6A",
"A. c #AFA169",
"S. c #B3A464",
"D. c #BAAA65",
"F. c #B2A56A",
"G. c #BCAD6B",
"H. c #B7A867",
"J. c #ADA477",
"K. c #BAAD72",
"L. c #B6AA74",
"P. c #BCB17C",
"I. c #BFB174",
"U. c #C0AE5C",
"Y. c #C0AF65",
"T. c #C6B365",
"R. c #C3B36D",
"E. c #CDBE7C",
"W. c #C7B876",
"Q. c #D3C37D",
"!. c #D7C476",
"~. c #848481",
"^. c #868984",
"/. c #8B8A85",
"(. c #8B8C89",
"). c #908E87",
"_. c #928F88",
"`. c #92928C",
"'. c #98968F",
"]. c #959692",
"[. c #979995",
"{. c #9A9A94",
"}. c #9C9D9B",
"|. c #8F928C",
" X c #A09E98",
".X c #9FA19E",
"XX c #B5AC82",
"oX c #BAB28B",
"OX c #A3A39D",
"+X c #A8A79F",
"@X c #A8A284",
"#X c #A5A6A3",
"$X c #ACABA6",
"%X c #A9AAA6",
"&X c #AFB0AD",
"*X c #B4B3AD",
"=X c #B4B5B2",
"-X c #BBBBB5",
";X c #BCBDBA",
":X c #B8B8B3",
">X c #B1AFA8",
",X c #C4B984",
"<X c #CABD83",
"1X c #C7BC86",
"2X c #C0BFB9",
"3X c #BFC0BD",
"4X c #CDC18D",
"5X c #D4C683",
"6X c #D9CB8B",
"7X c #D5C787",
"8X c #DED08E",
"9X c #CEC393",
"0X c #D9CD92",
"qX c #D0C699",
"wX c #D2C99C",
"eX c #D6CB97",
"rX c #DED196",
"tX c #E5D58F",
"yX c #E3D69B",
"uX c #E6D89A",
"iX c #F3E39A",
"pX c #D4CBA1",
"aX c #D8CEA1",
"sX c #DED3A2",
"dX c #C3C2BD",
"fX c #EADDA3",
"gX c #E5DBA9",
"hX c #E5DDB0",
"jX c #EEE2AB",
"kX c #F4E6A7",
"lX c #F3EAB8",
"zX c #EBE2B2",
"xX c #C4C4C2",
"cX c #CBCAC5",
"vX c #CCCCC9",
"bX c #C8C7C2",
"nX c #CFD2CE",
"mX c #D3D4CE",
"MX c #D3D4D1",
"NX c #D9DAD3",
"BX c #DDDEDA",
"VX c #D6D8D6",
"CX c #DDE0DD",
"ZX c #FFF6C4",
"AX c #E3E4DE",
"SX c #E4E5E2",
"DX c #EBECE5",
"FX c #ECECEA",
"GX c #E7E8E1",
"HX c #F0EFED",
"JX c #F1F1EE",
"KX c #F3F2F1",
"LX c #FAFAF5",
"PX c #FFFFFE",
"IX c #F8F7F3",
"UX c None",
/* pixels */
"UXUXUXUXUXUXUXUXUXUXUXUXUXUXUXUXUXUXUXUXUXUXUXUXUXUXr 7 5 r w 9 e 9 5 7 7 r UXUXUXUXUXUXUXUXUXUXUXUXUXUXUXUXUXUXUXUXUXUXUXUXUXUX",
"UXUXUXUXUXUXUXUXUXUXUXUXUXUXUXUXUXUXUXUXUXUX7 7 r e f h v e u v e u v h h e e r r 7 UXUXUXUXUXUXUXUXUXUXUXUXUXUXUXUXUXUXUXUXUXUX",
"UXUXUXUXUXUXUXUXUXUXUXUXUXUXUXUXUXUXUXUX7 e h h k r w 7 9 - - 9 & 1 7 - 7 1 e v e f r 7 UXUXUXUXUXUXUXUXUXUXUXUXUXUXUXUXUXUXUXUX",
"UXUXUXUXUXUXUXUXUXUXUXUXUXUXUXUXUX7 7 t k k f ; 1 e k R ~ O.$.*.&.&.@.+.W T u - + 7 k k e 7 r UXUXUXUXUXUXUXUXUXUXUXUXUXUXUXUXUX",
"UXUXUXUXUXUXUXUXUXUXUXUXUXUXUXUX7 l l t e & u W O.^.[.#X%X&X&X:X:X;X;X;X3X=X$X(.+.h * 1 r h i 7 UXUXUXUXUXUXUXUXUXUXUXUXUXUXUXUX",
"UXUXUXUXUXUXUXUXUXUXUXUXUXUX7 e v k : - v O.|..X#X#X#X#X.X[.].[.[.}.%X=X;XvXvXnXnXxX[.! ; * g k w 9 UXUXUXUXUXUXUXUXUXUXUXUXUXUX",
"UXUXUXUXUXUXUXUXUXUXUXUXUXr f f 7 - T *.[.}.}.}.|.&.{ W T k h f h h V W ^ *.[.;XnXVXBXBX=X^ o - T e 7 UXUXUXUXUXUXUXUXUXUXUXUXUX",
"UXUXUXUXUXUXUXUXUXUXUX7 r c g # i @.].].[.|.$.W f - # % = - > 5 5 5 1 & ; # 7 v O..XMXSXSXHX=Xv X 7 h 7 w UXUXUXUXUXUXUXUXUXUXUX",
"UXUXUXUXUXUXUXUXUXUX7 t f 0 & ! (.].|.(.X.h & o - 9 0 0 e e e e e e u e t f e - % 5 W [.BXFXKXHX~.X 1 T w r UXUXUXUXUXUXUXUXUXUX",
"UXUXUXUXUXUXUXUXUX7 w T 7 - @.`.(.|.+.h o % 7 r 9 0 0 w 9 e 0 e e e e u u e u f f t & % W &XKXKXPX;X7 & k 7 r UXUXUXUXUXUXUXUXUX",
"UXUXUXUXUXUXUXUX7 e R - r 4.(.(.~.T % & 7 r r 9 9 9 9 0 9 0 e e e u e e e f f u f t h h ; = $.FXPXPXSXk   g e 7 UXUXUXUXUXUXUXUX",
"UXUXUXUXUXUXUX7 w T 7 w ~.(.(.@.9 o 5 r 9 7 9 7 9 7 9 r 9 e 0 e e e e u e f e u f f f h k i X v MXPXPXIXT X T r w UXUXUXUXUXUXUX",
"UXUXUXUXUXUXUX9 T 7 w ~.^.^.X.* % r 7 7 7 7 7 0 9 r 7 0 0 0 e e e e e e f u u f t f f h h g k - 7 ;XPXPXLXh * v 7 UXUXUXUXUXUXUX",
"UXUXUXUXUXUX7 v u 5 4.^.^.^ o - 9 7 7 7 7 7 0 7 7 0 0 w w 0 0 e e e u e u t f u f h f f h g k k 7 % :XPXPXFX7 4 k 7 UXUXUXUXUXUX",
"UXUXUXUXUXw u w - @.(.(._ o - 9 7 7 7 9 9 7 7 0 7 0 8 0 0 e e 0 e e e u e t f f u f h h h g k k v e & ;XPXPXxX# f i 7 UXUXUXUXUX",
"UXUXUXUXUXe v % / |.(.O.o - 9 5 7 7 7 7 7 7 7 7 9 7 9 9 0 0 0 e e u t u f u u f f f f h g g h k k c r 1 cXPXPX^.X v r UXUXUXUXUX",
"UXUXUXUXw k 7 h ^.|.4.- % 9 7 > 7 7 7 7 7 7 7 9 9 7 9 9 r w e e e e e u t f t f f f h h g k k k k k v = l SXKXKXE - k 4 UXUXUXUX",
"UXUXUX9 t h - $.|.|.v X 9 7 7 > > 7 7 7 7 7 7 7 7 9 9 9 9 0 0 e e e u e f t f f f h h h k k k k k k h k X X.HXHX;X; k u r UXUXUX",
"UXUXUXw h & W ].]._ o 7 7 7 7 7 9 7 7 7 7 7 7 9 7 7 9 9 0 9 e e e u e f u f f f g g k k k k k k g f l h f o }.FXFXO.X u w UXUXUX",
"UXUXUXf k 5 4.].4.9 & 9 7 7 7 7 > 7 > 7 7 7 7 7 9 7 7 9 9 0 0 e e e u t e f f g h g k k k k k h g f f f h - k MXSX;X- i e UXUXUX",
"UXUXw u & W [.[.! o 9 7 7 7 7 7 7 7 > 7 7 7 7 7 9 9 7 9 9 9 w e e e u t f i g g g h k k j k h f f h f i f l X ~.SXSXX.- k 7 UXUX",
"UXUXu k - *.}.~.9 - 9 7 9 7 7 7 9 7 5 5 - 1 - 5 5 5 5 - 5 5 9 e e f e f i f g f u d l g l d f h f f f f t f - k xXBX}.4 c e UXUX",
"UX7 h q h ].}._ o 9 9 7 7 9 9 , O # = - 1 - - - - - - 6 > - o . & e f u f f g k c c k k g t r < q l f t f f f % ^.BXcXT - 7 w UX",
"UXr k - ~ .X].k % 9 7 9 9 - O y J r.C.Z.Z.Z.Z.J.J.J.XXXXoXoXJ.4.k + 5 h f f q Q eX,XP.P.P.F.m.] z < r f e t e % W cXMX#.# h 7 UX",
"UXe h 7 &.#X&.7 7 7 r w $ - I Y.Q.Q.Q.5X7X6X8X0XrXsXgXgXhXjXlXZXhXB.0 = h k q } fX0X4X4X<XE.E.Q.D.' 7 6 i e t r w %XMX].r k q UX",
"UXf e f |.#XX.# r 7 w * 9 f.!.G.H.G.K.I.I.4X4X4X4X4X9X4XqXqXpXpXhXZXwXV 1 k e ~ rX1X,X,XP.K.L.F.F.T.0.e 2 t a t * M.nX&Xg e t UX",
"7 l 7 T .XOXE % 9 9 = 7 s.T.g.S.H.R.Q.Q.8X8XrXuXuXuXfXuXfXfXsXwXpXpXzXsXk q q ) iXrX6X6X5XQ.G.V.g.h.z.,.q q e t o ^ xX;XR 7 l r ",
"7 v 7 ^ $X[.j - r q * -.U.h.g.D.!.F.e.e.e.e.b.n.n.n.n.n.n.B.9XjXaXqXqXjXoXr q Z 2... . .| 1.A.R.V.t.t.j.K < e e ; T =XxX^ : g 7 ",
"r e - O.&X(.e 7 e , m c.d.d.S.T.' 5 * * * * # # * # o o + + 7 n.jXaXqX9XkX .< e $ = , , , , w <.D.t.0.q.9.p 1 e 4 f OXxX@.4 h 7 ",
"e e 1 &.=XM.7 7 9 1 Y j.p.d.U.( O < 9 9 9 7 9 9 7 7 5 5 5 5 # . v.fX9X9XyXJ.q e t t e e e e 1 $ <.k.0.8.i.D 1 e 7 r `.dX3.4 l r ",
"e v r M.=X&.1 r 6 y 9.p.i.l.7., 5 9 e 9 9 9 9 9 9 9 9 9 9 5 9 - 7 XX6X,XE.4XV 1 t 0 t r t r 0 < t t.q.,.:.I r r 7 4 ~.dX~.7 l r ",
"u h r ^.-X&.- r < n u.9.q.l.A 3 u 9 e 9 9 u 9 9 u = o $ # # - 0 * 2.kX6X7XtX( # 0 r r t r r t r 4 Y p.,.-.=.e 7 7 : 3.-X~.t g 0 ",
"r u r (.3X4.- e 2 m 6.8.w.f.S < r t e e e e t r : ` m.2.b.e.g 7 * C C.e.b.m.C < 0 0 r 0 0 0 r 9 < F p.,.-.I y 7 7 - 3.:X3.t k r ",
"r u r ^.3XM.- e 2 n u.8.8.f.A , t a e e t e e r * m.iX7XrXtXQ < > & # # * # 7 0 7 r 7 0 r 7 r r < U i.>.;.P w 7 7 - 3.:X3.r l r ",
"e r > ^.dXN.> 0 6 z 5.5.8.a.[ 6 r e e t e t t t < ` E.L.K.5X .O 7 - > 7 > 5 7 7 7 7 r 7 r 7 0 < 8 8.8.=.-.F 7 7 7 7 3.:X*.- 7 r ",
"r r & 4.dX[.e 0 9 w Y 5.5.w.a.B 3 a i i i i i f q C R.G.L.W.W.k @ - 7 - 7 > 7 7 7 7 7 r 7 0 = + L q.-.=.:.m , r 4 r /.>XO.- r r ",
"w e % O.cX%Xh 7 u 6 A 6.;.7.9.u.B 1 2 2 2 2 < 6 f s y.E.F.F.E.G.N % O # + + + + # # * * ; # 7 K i.-.=.;.P 0 - r ; f `.$X^ ; r t ",
"w 0 o ~ dX-XE & u q 0 =.5.;.8.i.a.=.G A G D ( G j q C Y.D.V.V.G.R.y.] ] ' ' ' J J J J D D F ,.p.-.Y P ;.n - 8 8 % Z  XOXE ; r r ",
"UXr & T :XvX+.% u u 6 b :.:.-.8.w.a.s.j.l.x.T.k.j l q ( T.k.h.g.g.D.R.D.G.D.D.H.k.k.f.d.p.q.8.=.I P ;.H - 1 8 8 o / +X`.g - r UX",
"UXe 5 9 OXNX|.- u u u s N :.5.-.,.8.8.w.q.q.a.t.j l f 2 ( x.S.d.d.t.t.t.t.t.t.q.t.0.,.,.,.,.,.=.=.;.M - 1 7 7 > ; #.#X3.7 7 w UX",
"UXe w o N.NX:Xh 7 t f f q j L 5.5.5.5.8.w.9.a.w.g d f e 2 N 0.z.k.f.d.d.d.d.t.p.q.0.0.9.8.8.8.-.L b - - 7 7 7 & e /.OX{ ; t r UX",
"UXw e X / nXNX{ % f t f f s u B K I ;.;.-.8.q.,.h u f t u < 4 N U >.,.,.,.<.>.>.>.>.I I U L M b 7 * > 9 7 7 7 X R  X'.V ; r w UX",
"UXUXe > 0 *XAXOX: t f f i f f s a h k k k c V x f f u f u e r $ , 1 7 7 7 7 > > 4 : 4 4 5 - = # - 7 7 > > 7 > & #. X3.> 7 0 UXUX",
"UXUXw 0 X %.GXMXW ; g l f h h h h l f d l d d u f f f u e e w t r 7 4 1 - : - > - - 1 - - 1 5 7 7 > > 7 > 7 o k _.{.Q % t w UXUX",
"UXUXUXe % g mXDXOX& f g l g h g g h g g k h f f f u u t e e 0 0 r 7 7 > 8 > > 7 7 4 : > > 7 7 > > > 5 > > > & o.{.M.t 4 w UXUXUX",
"UXUXUX0 w . /.JXGX^ % j g g j g h h h g g h f f f i u e e e e 0 r r 8 7 7 7 7 > 4 7 7 > 7 - > > > 7 > 7 7 X v ).'./ # 0 0 UXUXUX",
"UXUXUXw e & t mXIXbX7 r j g g l h h g h f h f f t t e t e e e 0 8 7 7 7 > > 7 7 7 > : > > 7 > 5 > 7 > 7 & & %.'.%.9 > t w UXUXUX",
"UXUXUXUXw e   *.LXLX[.o g h h h h h h h h f f t f t t e e e 0 0 7 8 8 7 8 7 7 > > 7 7 : > > > > > > > > X ~ _._.T & e w UXUXUXUX",
"UXUXUXUXUXe > # :XPXLXO.X g k g g h h h f f u f e u e e e e e 0 0 7 7 8 9 7 7 7 7 > 7 > 5 > > > > > 5 X V /._.X.& 0 r UXUXUXUXUX",
"UXUXUXUXUXw e X t DXPXKXW o k k h h f f f t f f t u e u e 0 0 8 0 0 8 7 > 7 > > > 5 > > 7 > > > > 7 X e M.).%.r - t t UXUXUXUXUX",
"UXUXUXUXUXUX0 e   / PXPXJXT # k g h f f f f f t f t u e e e 0 0 0 7 9 7 0 9 7 7 7 > > 7 > > > 7 > X 9 4.).N.f & w w UXUXUXUXUXUX",
"UXUXUXUXUXUXUXw w   *.PXPXJXE X f h f f f t u u e e e e e e 0 0 0 0 7 9 9 > 7 7 7 7 7 > > 7 > > X y M.N.~.V ; 0 0 UXUXUXUXUXUXUX",
"UXUXUXUXUXUXUXt e 7   ~.PXPXJX{ X 0 h f i u i u u u e e e e 0 8 7 7 7 8 7 8 7 7 > > > 7 7 7 & X g M.).N.Z * 0 t w UXUXUXUXUXUXUX",
"UXUXUXUXUXUXUXUXw w 4   *.PXPXIX/.- % f f f u e e e e e e e 0 0 0 0 0 7 7 7 7 > 7 7 7 7 > o % ! N._.N.V ; 7 e w UXUXUXUXUXUXUXUX",
"UXUXUXUXUXUXUXUXUX0 e 7   ^ FXPXLX-XE o - i i u u e e e e 0 0 8 0 7 7 7 7 7 7 7 7 7 > & o f #.|.'.%.j & w e 0 UXUXUXUXUXUXUXUXUX",
"UXUXUXUXUXUXUXUXUXUXw e 7   h 2XLXLXBX(.v % & 0 u e e e e 8 0 8 7 0 8 8 8 7 7 7 > o o e } N.'.|.o.9 & e 0 w UXUXUXUXUXUXUXUXUXUX",
"UXUXUXUXUXUXUXUXUXUXUXt w e X # &.NXJXDXcX).R 7 o ; > 8 t 0 0 r 0 0 8 7 > - o o & j { N. X{.4.R - - e w w UXUXUXUXUXUXUXUXUXUXUX",
"UXUXUXUXUXUXUXUXUXUXUXUXUXw e :   g '.mXGXGXcXOX$.R f 7 ; % % % o o % & > y V ~ %.'.OX{.N.) e * 7 w t UXUXUXUXUXUXUXUXUXUXUXUXUX",
"UXUXUXUXUXUXUXUXUXUXUXUXUXUX0 0 e % X V ^.:XmXBXmXdX+X_.%.O.{ ^ ) _ X.#.3./.{.+X+X{.M.^ f & 5 e 0 w UXUXUXUXUXUXUXUXUXUXUXUXUXUX",
"UXUXUXUXUXUXUXUXUXUXUXUXUXUXUXUXw w 7 # X u { ).$X2XcXcXcXdX2X-X:X*X*X*X>X+X{.N.o.E 0 % 5 9 9 9 UXUXUXUXUXUXUXUXUXUXUXUXUXUXUXUX",
"UXUXUXUXUXUXUXUXUXUXUXUXUXUXUXUXUXw 0 t t - X ; i R X.3./._.].].`._.N.*.o./ V e & % 7 t 0 w t UXUXUXUXUXUXUXUXUXUXUXUXUXUXUXUXUX",
"UXUXUXUXUXUXUXUXUXUXUXUXUXUXUXUXUXUXUXUXr 0 w 0 : % o % : 0 t e u e 7 7 ; % ; 7 r t w w UXUXUXUXUXUXUXUXUXUXUXUXUXUXUXUXUXUXUXUX",
"UXUXUXUXUXUXUXUXUXUXUXUXUXUXUXUXUXUXUXUXUXUXw 0 w r r r 7 7 4 7 4 7 7 7 r r w w w 0 UXUXUXUXUXUXUXUXUXUXUXUXUXUXUXUXUXUXUXUXUXUX",
"UXUXUXUXUXUXUXUXUXUXUXUXUXUXUXUXUXUXUXUXUXUXUXUXUXUXt r 0 0 w 0 w w 0 0 w t UXUXUXUXUXUXUXUXUXUXUXUXUXUXUXUXUXUXUXUXUXUXUXUXUXUX"
};
