/* XPM */
static char *_26bdeeacdbe401cef592a5a33ed9764[] = {
/* columns rows colors chars-per-pixel */
"32 32 189 2 ",
"   c #020205",
".  c #040409",
"X  c #06080F",
"o  c #0C0C0C",
"O  c #0F100F",
"+  c #060812",
"@  c #0C0D12",
"#  c #05091A",
"$  c #0B0E18",
"%  c #0F1010",
"&  c #0E111B",
"*  c #141415",
"=  c #14161B",
"-  c #181718",
";  c #17181D",
":  c #1B1C1C",
">  c #1F201F",
",  c #21211F",
"<  c #0E1222",
"1  c #171922",
"2  c #1C1D22",
"3  c #1C1E29",
"4  c #201F20",
"5  c #1F2022",
"6  c #1E202A",
"7  c #242423",
"8  c #282725",
"9  c #272826",
"0  c #292827",
"q  c #252529",
"w  c #27282C",
"e  c #2B2B2B",
"r  c #2F302E",
"t  c #343226",
"y  c #3E3925",
"u  c #32312E",
"i  c #38362C",
"p  c #3F3B2B",
"a  c #272934",
"s  c #2C2D31",
"d  c #2F3135",
"f  c #333333",
"g  c #373836",
"h  c #3C3B36",
"j  c #313338",
"k  c #3B3B3A",
"l  c #433E2B",
"z  c #413D31",
"x  c #48422E",
"c  c #504728",
"v  c #454233",
"b  c #4C4732",
"n  c #4D4834",
"m  c #44433C",
"M  c #4A4738",
"N  c #4F4B38",
"B  c #514D3E",
"V  c #5C5335",
"C  c #55503C",
"Z  c #655B32",
"A  c #6B5E32",
"S  c #665E3A",
"D  c #685F3B",
"F  c #6D623B",
"G  c #726634",
"H  c #716639",
"J  c #454543",
"K  c #474847",
"L  c #494946",
"P  c #4D4D4B",
"I  c #52514D",
"U  c #5D5B4F",
"Y  c #535352",
"T  c #595955",
"R  c #5D5D5B",
"E  c #625D44",
"W  c #6C6546",
"Q  c #66614E",
"!  c #69644A",
"~  c #656355",
"^  c #6C6850",
"/  c #60615C",
"(  c #726D54",
")  c #7B7556",
"_  c #77745F",
"`  c #646462",
"'  c #6D6D6B",
"]  c #706F6C",
"[  c #73726E",
"{  c #757573",
"}  c #7E7C74",
"|  c #7A7B7A",
" . c #82723A",
".. c #8D7C3A",
"X. c #927F3A",
"o. c #837540",
"O. c #877942",
"+. c #8C7D47",
"@. c #847E60",
"#. c #A5903F",
"$. c #8F804A",
"%. c #998744",
"&. c #9D8B43",
"*. c #938349",
"=. c #9F8E48",
"-. c #9A8C53",
";. c #918658",
":. c #9F9156",
">. c #A08E46",
",. c #A79244",
"<. c #A4924B",
"1. c #A8954C",
"2. c #AE9A4C",
"3. c #B09B4A",
"4. c #AE9D57",
"5. c #A89B5B",
"6. c #B29F57",
"7. c #B7A354",
"8. c #BAA654",
"9. c #BAA75C",
"0. c #858064",
"q. c #968D62",
"w. c #9E9363",
"e. c #9D946A",
"r. c #85837D",
"t. c #88867F",
"y. c #A69C6E",
"u. c #A39A71",
"i. c #BDAB64",
"p. c #BBAC6C",
"a. c #ABA277",
"s. c #ACA37A",
"d. c #BAAE76",
"f. c #C0AD64",
"g. c #CBB762",
"h. c #C9B669",
"j. c #CDB969",
"k. c #D9C775",
"l. c #D3C37B",
"z. c #D9C87A",
"x. c #848582",
"c. c #878885",
"v. c #8C8B85",
"b. c #8E908D",
"n. c #93938C",
"m. c #959793",
"M. c #989792",
"N. c #969995",
"B. c #9B9A94",
"V. c #9C9D9A",
"C. c #9EA09C",
"Z. c #B8AE83",
"A. c #A0A29F",
"S. c #A5A5A4",
"D. c #A9A9A6",
"F. c #AEADAA",
"G. c #B2B2AE",
"H. c #B9B9B5",
"J. c #BDBEBA",
"K. c #C6BC90",
"L. c #DECD82",
"P. c #CEC59E",
"I. c #E2D28E",
"U. c #EDDD8C",
"Y. c #EDDD92",
"T. c #F4E49A",
"R. c #DCD1A0",
"E. c #C1C2BD",
"W. c #EBE0AC",
"Q. c #FDEDA4",
"!. c #FDEFAD",
"~. c #FFF2AC",
"^. c #FFF3B4",
"/. c #C6C6C4",
"(. c #CBC9C6",
"). c #CDCDCC",
"_. c #D5D6CE",
"`. c #D7D7D6",
"'. c #DEDED7",
"]. c #DFE0D9",
"[. c #FDF2C0",
"{. c #FFFBC1",
"}. c #E2E3DC",
"|. c #E8E8E6",
" X c #EAEBE9",
".X c #F1F1EF",
"XX c #F6F6F3",
"oX c #FEFEFE",
"OX c None",
/* pixels */
"OXOXOXOXOXOXOXOXOXOXOXOX7 7 : : : : : q OXOXOXOXOXOXOXOXOXOXOXOX",
"OXOXOXOXOXOXOXOXOXq 7 7 s J Y R ` R K r * = 7 OXOXOXOXOXOXOXOXOX",
"OXOXOXOXOXOXOX0 7 7 P { m.V.S.S.D.G.J.J.V.R : * e OXOXOXOXOXOXOX",
"OXOXOXOXOXOX0 2 J r.V.c.` J f f f k I | J. X(.T O : OXOXOXOXOXOX",
"OXOXOXOXOXq 7 ` V.| k ; * - : q 7 5 ; * > I /.oXV.: - OXOXOXOXOX",
"OXOXOXOX0 e { N.K % * 7 9 0 0 0 e e r f e : * | oX).: - OXOXOXOX",
"OXOXOX9 9 { b.e O 7 9 9 9 9 9 e e e r r f g r O Y oX`.; 2 OXOXOX",
"OXOXe : ` N.0 % 7 7 q 7 9 7 9 e e s u f g g g k * Y oXD.% 0 OXOX",
"OXOX7 K V.m O q 7 7 7 7 7 9 9 0 e e r f j k k k k O [ oXR * OXOX",
"OX0 q x.[ O 5 7 7 5 7 7 9 9 9 e e r d f g k z k g f O J.).2 8 OX",
"OX5 I V.u - 9 2 $ + + + + + + @ 7 u g d 3 q 6 6 s g - J |.` - OX",
"OXq | | * 9 & > C W ! ! ^ ( _ / 0 ; s J @.@.) E e 3 r - F.S.; OX",
"0 g m.Y * < l 5.z.U.T.Q.!.^.^.{.P.I # U !.Q.Y.l.:.z 3 * ' J.f 7 ",
"7 P V.k + i 9.k.p.w.y.a.s.a.a.R.{.W.L u u.e.q.p.h.<.t & J H.Y : ",
"; R V.0 = O.g.:.i ; 5 > ; = + h K.^.Z.4 1 3 3 z :.7.H ; e D.` 2 ",
": ' N.2 t >.7.x # 9 q 7 5 : =   Q Q.I.M = 0 q # V 2. .8 4 V.] : ",
"; [ V.1 l &.<.i 2 e e 1 B d.y.e ; E E t 3 8 0 < x 1. .8 2 M.' : ",
"* ` D.7 8 ..3.D < 3 3 < B L.Y.(     . $ = = & & H >.G : 7 B.T * ",
"* Y H.g ; Z ,.>.D z N M w ;.k.p.W v M b b x l F %.X.l $ f B.L - ",
"4 f E./ $ e G #.3.1.8.4.j s -.h.j.f.i.9.6.1.<.1...c : @ P M.d 4 ",
"OX* F.V.* s e V  ...%.*.z 3 w F +.*.+.+.O. . .A y : 4 O [ @.3 OX",
"OXo ] '.f 7 d a g h k h f u q < 7 8 7 7 7 7 4 : = , ; 7 M.I ; OX",
"OX, , ].m.O g g g j d d f r e 0 7 2 2 : : : : 4 7 7 o / v.7 8 OX",
"OXOX. [ oXL - k g g f f u e e 8 7 7 7 7 7 , 4 4 7 @ r B.K - OXOX",
"OXOX7 o (.XX8 , k g f r r e e 8 8 8 8 7 7 , , 7 % * c.[ - 8 OXOX",
"OXOXOX% ; XX|.7 * g f d r e e 0 7 8 7 , 7 , 7 O ; @.r.4 , OXOXOX",
"OXOXOXOXo e XX.Xk O 7 f s e e 0 0 7 7 7 7 - o 9 x.r.7 : OXOXOXOX",
"OXOXOXOXOX. 7 /.oXc.0 % - , 8 8 8 7 : * o , T B.{ 4 2 OXOXOXOXOX",
"OXOXOXOXOXOX% o } }._.v.P r , ; - : 0 m ` n.n.P = 7 OXOXOXOXOXOX",
"OXOXOXOXOXOXOX7 . 7 { G.J.F.B.n.v.n.n.n.r.T 7 * 7 OXOXOXOXOXOXOX",
"OXOXOXOXOXOXOXOXOX: o - k T ] { [ ` I f : - 7 OXOXOXOXOXOXOXOXOX",
"OXOXOXOXOXOXOXOXOXOXOXOX: - * * * * - 7 OXOXOXOXOXOXOXOXOXOXOXOX"
};
