/* XPM */
static char *ba8f814fd94c4afcf8c56ce83385498e[] = {
/* columns rows colors chars-per-pixel */
"16 16 195 2 ",
"   c #04050A",
".  c #0A0A0B",
"X  c #0A0A0D",
"o  c #0F0E0F",
"O  c #020614",
"+  c #080910",
"@  c #0F0F12",
"#  c #0B0D16",
"$  c #0C0E14",
"%  c #0C0E16",
"&  c #000318",
"*  c #060A18",
"=  c #090D1B",
"-  c #0D0F19",
";  c #0F1010",
":  c #0D101A",
">  c #0E101B",
",  c #101116",
"<  c #141314",
"1  c gray8",
"2  c #151414",
"3  c #151514",
"4  c #141415",
"5  c #161616",
"6  c #171616",
"7  c gray9",
"8  c #1A1815",
"9  c #13151A",
"0  c #16181C",
"q  c #181818",
"w  c #1B1A18",
"e  c #19191A",
"r  c gray10",
"t  c #1B1B1B",
"y  c #1E1D1D",
"u  c #27241B",
"i  c #030920",
"p  c #1C1E23",
"a  c #1E1F24",
"s  c #222121",
"d  c #222221",
"f  c #212122",
"g  c #222222",
"h  c #222223",
"j  c #252523",
"k  c #252524",
"l  c #242425",
"z  c #242525",
"x  c #252525",
"c  c #272625",
"v  c #252627",
"b  c #262726",
"n  c #272727",
"m  c #23252A",
"M  c #23242D",
"N  c #24252D",
"B  c #26272D",
"V  c #27292E",
"C  c #282828",
"Z  c #282929",
"A  c gray16",
"S  c #2A2928",
"D  c #2A2A28",
"F  c #29292A",
"G  c #2A2A2A",
"H  c #2A2A2B",
"J  c gray17",
"K  c #2E2E2A",
"L  c #2D2D2C",
"P  c #2D2D2D",
"I  c #2F2F2E",
"U  c #302E26",
"Y  c #34322B",
"T  c #30302E",
"R  c #262932",
"E  c #252936",
"W  c #2E2F30",
"Q  c #313130",
"!  c #323231",
"~  c #383837",
"^  c #34363D",
"/  c #393A38",
"(  c #504622",
")  c #564B23",
"_  c #524E39",
"`  c #5E5431",
"'  c #63582A",
"]  c #6C5E28",
"[  c #6C623A",
"{  c #6E653F",
"}  c #7D6D37",
"|  c #3C3E42",
" . c gray28",
".. c #494744",
"X. c #484746",
"o. c #4A4943",
"O. c #4A4A48",
"+. c #4B4C4B",
"@. c #4D4E4D",
"#. c #4E4F4E",
"$. c #5E5A44",
"%. c #5E5C4E",
"&. c #4B4E5A",
"*. c #4F5059",
"=. c #525250",
"-. c #535353",
";. c #545451",
":. c #555552",
">. c #545553",
",. c #555554",
"<. c #565554",
"1. c #565655",
"2. c #585755",
"3. c #595954",
"4. c #5A5957",
"5. c #5B5B57",
"6. c #5D5C56",
"7. c #585958",
"8. c #5B5B5A",
"9. c #5D5D59",
"0. c #5D5C5A",
"q. c #5C5C5D",
"w. c #5D5E5D",
"e. c #615C48",
"r. c #64604E",
"t. c #68634E",
"y. c #736840",
"u. c #756B40",
"i. c #776C42",
"p. c #7B6F40",
"a. c #7E7347",
"s. c #62615E",
"d. c #65645F",
"f. c #7C765F",
"g. c #555760",
"h. c #545761",
"j. c #5D5F62",
"k. c #616160",
"l. c #656560",
"z. c #666460",
"x. c #646660",
"c. c #646663",
"v. c #666866",
"b. c #676966",
"n. c #696963",
"m. c #686966",
"M. c #696A69",
"N. c #6E6E6C",
"B. c #6F6F6D",
"V. c #6F716C",
"C. c #72716E",
"Z. c #6E7074",
"A. c #777776",
"S. c #757678",
"D. c #7A7A79",
"F. c #7C7B78",
"G. c #7C7D7A",
"H. c #87783D",
"J. c #88793F",
"K. c #89793F",
"L. c #807443",
"P. c #897C49",
"I. c #94823D",
"U. c #8E814E",
"Y. c #938342",
"T. c #898059",
"R. c #8E855C",
"E. c #978A51",
"W. c #A3924F",
"Q. c #AC9C56",
"!. c #968F6A",
"~. c #80817F",
"^. c #B1A77A",
"/. c #C1B16C",
"(. c #CABB74",
"). c #C0B57F",
"_. c #CEBE7A",
"`. c #8C8D88",
"'. c #8D8D8B",
"]. c #92928C",
"[. c #939490",
"{. c #9A9A95",
"}. c #999996",
"|. c #989A98",
" X c #BDB386",
".X c #B7B08E",
"XX c #A8A8A6",
"oX c #A9AAA9",
"OX c #AAABA9",
"+X c #B2B2B0",
"@X c #B3B2B0",
"#X c #B2B2B2",
"$X c #DFD39B",
"%X c #DFD5A6",
"&X c None",
/* pixels */
"&X&X&X&X&Xb  .7.w.#.f &X&X&X&X&X",
"&X&X&Xf >.V.M.b.b.`.}.A.< &X&X&X",
"&X&XF b.c.~ y 7 5 f #.oX#Xl &X&X",
"&Xf m.>.; r b Z J Q s 5 oX#X5 &X",
"&X1.d.X % % % , F ! N M @ XXD.&X",
"F C.V , _ $.r.%.p W f.t.0 | }.l ",
"+.j.1 E.(.). X%X.Xo.^._.U.< S.>.",
"8.&.' Q.H z j v $X!.O P W.( g.k.",
"w.g.] P.i O R.T.9 K * # H.) *.4.",
"=.B.u I.Y.{ e./.P.u.a.J.} 8 q.X.",
"l ].^ U p.a.N Y i.y.[ ` 8 m n.Z ",
"&XF.}.+ E R T a > - - >   6.>.&X",
"&Xq @X'.; c T F c j t . ..d.f &X",
"&X&XJ @X[./ 5 5 3 3 D 4.z.F &X&X",
"&X&X&Xq G.`.C.s.5.9.z.>.f &X&X&X",
"&X&X&X&X&XF 1.9.4...F &X&X&X&X&X"
};
